# xmcd
#
# Track frame offsets:
#	200
#	23887
#	41040
#	56730
#	78297
#	96565
#	115685
#	132292
#	157247
#	175672
#	196627
#	220022
#
# Disc length: 3179 seconds
# Revision: 5
# Processed by: cddbd v1.5.2PL0 Copyright (c) Steve Scherf et al.
# Submitted via: dBpowerAMP V12.0
#
DISCID=9f0c690c
DTITLE=Ray Wylie Hubbard - Loco Gringo's Lament
DYEAR=1994
DGENRE=Country
TTITLE0=Dust of the Chase
TTITLE1=Just to Hold You
TTITLE2=Love Never Dies
TTITLE3=Little Angel Comes A-Walkin'
TTITLE4=After the Fall
TTITLE5=Wanna Rock and Roll
TTITLE6=I've Seen That Old Highway
TTITLE7=Didn't Have a Prayer
TTITLE8=Bless the Hearts of the Lonely
TTITLE9=Loco Gringo's Lament
TTITLE10=The Real Trick
TTITLE11=The Messenger
EXTD=
EXTT0=
EXTT1=
EXTT2=
EXTT3=
EXTT4=
EXTT5=
EXTT6=
EXTT7=
EXTT8=
EXTT9=
EXTT10=
EXTT11=
PLAYORDER=
